# xmcd
#
# Track frame offsets:
#	150
#	11645
#	23760
#	37460
#	51694
#	65128
#	77555
#	90234
#	101782
#	116362
#	127067
#	139121
#	154273
#	169772
#	182206
#	195088
#	206363
#	217543
#	229036
#	243061
#
# Disc length: 3395 seconds
#
# Revision: 1
# Processed by: cddbd v1.5.2PL0 Copyright (c) Steve Scherf et al.
# Submitted via: audiograbber 1.83.01
#
DISCID=0d0d4114
DTITLE=Sonny Terry and Brownie McGhee - 1946/1953
DYEAR=1900
DGENRE=Blues
TTITLE0=Worried life blues
TTITLE1=Big legged woman
TTITLE2=B.M. blues
TTITLE3=All alone blues
TTITLE4=Auto mechanic blues
TTITLE5=Beer garden blues
TTITLE6=Aunt Jane's blues
TTITLE7=Crow Jane blues
TTITLE8=Hot-headed woman
TTITLE9=Robbie-doby boogie
TTITLE10=I was fooled
TTITLE11=Drinkin' wine spo-dee-o-dee
TTITLE12=Telephone blues
TTITLE13=Dirty mistreater, don't you know
TTITLE14=So much trouble
TTITLE15=Sittin' pretty
TTITLE16=Dangerous woman
TTITLE17=I'm 10,000 years old
TTITLE18=Don't dog your woman
TTITLE19=Sonny is drinkin'
EXTD=
EXTT0=
EXTT1=
EXTT2=
EXTT3=
EXTT4=
EXTT5=
EXTT6=
EXTT7=
EXTT8=
EXTT9=
EXTT10=
EXTT11=
EXTT12=
EXTT13=
EXTT14=
EXTT15=
EXTT16=
EXTT17=
EXTT18=
EXTT19=
PLAYORDER=
